<svg width="56" height="56" viewBox="0 0 56 56" fill="none" xmlns="http://www.w3.org/2000/svg">
<path d="M0 45.8083C0 42.5644 1.40299 39.6702 4.21045 37.1293C7.01495 34.5919 10.4058 33.3205 14.3784 33.3205H16.9334C15.6072 31.8271 14.9441 30.2235 14.9441 28.5045C14.9441 27.4238 15.1966 26.3396 15.7002 25.2588C15.3856 25.2956 14.9293 25.3166 14.3282 25.3166C11.0511 25.3166 8.37069 24.1012 6.28983 21.6739C4.20897 19.2484 3.16781 16.2616 3.16781 12.7116C3.16781 9.31381 4.46003 6.34794 7.04449 3.80876C9.63338 1.26784 12.5826 0 15.8922 0H30.5527L27.2904 2.79974H22.6576C24.1388 3.47125 25.2996 4.74259 26.1325 6.61025C26.9684 8.47441 27.3879 10.5484 27.3879 12.827C27.3879 16.2983 26.0011 19.3219 23.2247 21.8995C22.058 22.9802 21.3018 23.8371 20.9548 24.4737C20.6077 25.1102 20.4335 25.8936 20.4335 26.8257C20.4335 27.534 20.8617 28.4328 21.7109 29.5153C22.563 30.596 23.4137 31.5124 24.2644 32.2556C26.1857 33.8609 27.5208 35.5065 28.2621 37.1835C29.0035 38.8676 29.3712 40.9748 29.3712 43.5122C29.3712 46.8733 28.079 49.7937 25.4946 52.2769C22.9101 54.7636 19.41 56 14.9943 56C10.8016 56 7.25272 55.0714 4.3537 53.202C1.45173 51.3343 0 48.8721 0 45.8083ZM5.29592 43.9599C5.29592 46.5393 6.21894 48.7322 8.0635 50.5422C9.90807 52.3556 12.2016 53.258 14.9441 53.258C18.6982 53.258 21.4155 52.4343 23.1021 50.7957C24.7916 49.1537 25.6334 46.9695 25.6334 44.2449C25.6334 43.535 25.5714 42.9369 25.4443 42.4525C25.3513 42.0433 25.2391 41.6603 25.115 41.3018C24.9865 40.9503 24.7975 40.5953 24.545 40.2403C24.2954 39.8853 24.0738 39.588 23.8863 39.345C23.6958 39.1019 23.3886 38.7959 22.9618 38.4199C22.5365 38.0474 22.2116 37.7676 21.9915 37.5805C21.7715 37.3969 21.3786 37.0681 20.8086 36.5994C20.2429 36.1343 19.8309 35.8073 19.5784 35.6184C18.3482 35.1707 17.1357 34.9486 15.938 34.9486C13.0995 34.9119 10.6169 35.7863 8.49031 37.5787C6.36367 39.3695 5.29592 41.4977 5.29592 43.9599ZM8.41942 12.6574C8.76648 15.6058 9.72051 18.1432 11.2815 20.2732C12.844 22.3996 14.5704 23.4821 16.4608 23.5206C18.3216 23.594 19.8043 22.6252 20.9075 20.6072C22.0107 18.5909 22.405 16.1094 22.0875 13.1593C21.7729 10.2109 20.8351 7.70846 19.2756 5.65369C17.7131 3.60241 15.9867 2.53917 14.0934 2.46223C12.2031 2.39053 10.7056 3.3401 9.60089 5.32142C8.49769 7.29925 8.10338 9.744 8.41942 12.6574ZM34.6686 14.0022V11.2007H44.1263V0H46.4922V11.2007H56V14.0022H46.4907V25.2588H44.1248V14.0022H34.6686Z" fill="white"/>
</svg>
