<svg width="56" height="56" viewBox="0 0 56 56" fill="none" xmlns="http://www.w3.org/2000/svg">
<path d="M27.6793 38.979C33.8599 38.979 38.8704 33.9686 38.8704 27.7879C38.8704 21.6072 33.8599 16.5968 27.6793 16.5968C21.4986 16.5968 16.4882 21.6072 16.4882 27.7879C16.4882 33.9686 21.4986 38.979 27.6793 38.979Z" fill="#FEFEFE"/>
<path d="M16.895 0.634827C8.24769 0.634827 1.20654 7.67598 1.20654 16.3233V37.6754C1.20654 46.3228 8.24769 53.3635 16.895 53.3635H38.4635C47.1108 53.3635 54.1516 46.3232 54.1516 37.6754V16.3233C54.1516 7.67598 47.1113 0.634827 38.4635 0.634827H16.895ZM16.895 5.70834H38.4635C44.3881 5.70834 49.0781 10.3992 49.0781 16.3233V37.6754C49.0781 43.6 44.3881 48.29 38.4635 48.29H16.895C10.9705 48.29 6.28006 43.6 6.28006 37.6754V16.3233C6.28006 10.3988 10.9709 5.70834 16.895 5.70834Z" fill="#FEFEFE"/>
<path d="M41.9211 17.2194C43.6771 17.2194 45.1006 15.7958 45.1006 14.0399C45.1006 12.2839 43.6771 10.8604 41.9211 10.8604C40.1651 10.8604 38.7416 12.2839 38.7416 14.0399C38.7416 15.7958 40.1651 17.2194 41.9211 17.2194Z" fill="#FEFEFE"/>
</svg>
